<?xml version="1.0" encoding="UTF-8"?>
<svg version="1.1" xmlns="http://www.w3.org/2000/svg" width="58" height="44">
<path d="M0 0 C2.375 -0.125 2.375 -0.125 5 0 C5.66 0.66 6.32 1.32 7 2 C7.99 2.66 8.98 3.32 10 4 C11.33333333 5 12.66666667 6 14 7 C14.99 7.66 15.98 8.32 17 9 C18.33333333 10 19.66666667 11 21 12 C21.99 12.66 22.98 13.32 24 14 C26.1875 15.9375 26.1875 15.9375 28 18 C28 18.99 28 19.98 28 21 C26.35 21 24.7 21 23 21 C22.67 25.95 22.34 30.9 22 36 C21.01 36 20.02 36 19 36 C18.67 29.4 18.34 22.8 18 16 C16.68 15.34 15.36 14.68 14 14 C12.65210653 13.01971384 11.31787285 12.02028865 10 11 C9.01 10.34 8.02 9.68 7 9 C6.01 8.34 5.02 7.68 4 7 C1.35367713 7.3121764 1.35367713 7.3121764 -1 8 C-1 8.66 -1 9.32 -1 10 C-1.9075 10.433125 -2.815 10.86625 -3.75 11.3125 C-6.44133757 12.70992528 -8.63200202 14.13943016 -11 16 C-11.66 16.33 -12.32 16.66 -13 17 C-13 23.27 -13 29.54 -13 36 C-13.99 36 -14.98 36 -16 36 C-16.33 31.05 -16.66 26.1 -17 21 C-18.65 21 -20.3 21 -22 21 C-21.875 18.1875 -21.875 18.1875 -21 15 C-18.1875 13.375 -18.1875 13.375 -15 12 C-13.64691687 10.68671343 -12.31129922 9.35500919 -11 8 C-9.67532254 7.3162955 -8.34136367 6.65035814 -7 6 C-5.321702 4.68133728 -3.65385233 3.34919532 -2 2 C-1.34 1.67 -0.68 1.34 0 1 C0 0.67 0 0.34 0 0 Z " fill="#2555B0" transform="translate(26,4)"/>
<path d="M0 0 C0.433125 0.45375 0.86625 0.9075 1.3125 1.375 C3.10798342 3.20024334 3.10798342 3.20024334 6 5 C4.35 5.33 2.7 5.66 1 6 C1 6.66 1 7.32 1 8 C0.0925 8.433125 -0.815 8.86625 -1.75 9.3125 C-4.44133757 10.70992528 -6.63200202 12.13943016 -9 14 C-9.99 14.495 -9.99 14.495 -11 15 C-11 21.27 -11 27.54 -11 34 C-11.99 34 -12.98 34 -14 34 C-14.33 29.05 -14.66 24.1 -15 19 C-16.65 19 -18.3 19 -20 19 C-19.875 16.1875 -19.875 16.1875 -19 13 C-16.1875 11.375 -16.1875 11.375 -13 10 C-11.64691687 8.68671343 -10.31129922 7.35500919 -9 6 C-7.67532254 5.3162955 -6.34136367 4.65035814 -5 4 C-3.31110128 2.6949419 -1.6396721 1.36639342 0 0 Z " fill="#204EA8" transform="translate(24,6)"/>
<path d="M0 0 C10.15317287 -0.63019694 10.15317287 -0.63019694 13.6875 2 C14.120625 2.66 14.55375 3.32 15 4 C14.67 4.99 14.34 5.98 14 7 C14.99 7.33 15.98 7.66 17 8 C17.4375 10.625 17.4375 10.625 17 14 C14.25154825 17.44721068 11.48082087 19.81095904 7.0625 20.375 C6.381875 20.25125 5.70125 20.1275 5 20 C5 19.01 5 18.02 5 17 C5.99 17 6.98 17 8 17 C8.33 16.34 8.66 15.68 9 15 C9.66 14.67 10.32 14.34 11 14 C11.65772428 10.97065509 11.65772428 10.97065509 12 8 C11.34 7.67 10.68 7.34 10 7 C10 6.34 10 5.68 10 5 C9.67 4.34 9.34 3.68 9 3 C5.28263359 2.65099442 5.28263359 2.65099442 2.1875 4.5 C1.795625 4.995 1.40375 5.49 1 6 C1.33 6.66 1.66 7.32 2 8 C1.34 8 0.68 8 0 8 C0.33 10.31 0.66 12.62 1 15 C-0.65 15 -2.3 15 -4 15 C-4.84190801 11.63236795 -5.32295159 9.25649623 -4 6 C-2.70055256 4.30678061 -1.37073786 2.63604196 0 1 C0 0.67 0 0.34 0 0 Z " fill="#1E468D" transform="translate(23,18)"/>
<path d="M0 0 C2.375 -0.125 2.375 -0.125 5 0 C5.66 0.66 6.32 1.32 7 2 C7.99 2.66 8.98 3.32 10 4 C11.33333333 5 12.66666667 6 14 7 C14.99 7.66 15.98 8.32 17 9 C17.1875 11.625 17.1875 11.625 17 14 C12.25 13.25 12.25 13.25 10 11 C9.01 10.34 8.02 9.68 7 9 C6.525625 8.484375 6.05125 7.96875 5.5625 7.4375 C3.74720197 5.76742581 2.40085411 5.41394036 0 5 C0 3.35 0 1.7 0 0 Z " fill="#2153B1" transform="translate(26,4)"/>
<path d="M0 0 C1.32 0.66 2.64 1.32 4 2 C4.4375 4.625 4.4375 4.625 4 8 C1.25154825 11.44721068 -1.51917913 13.81095904 -5.9375 14.375 C-6.618125 14.25125 -7.29875 14.1275 -8 14 C-8 13.01 -8 12.02 -8 11 C-7.01 11 -6.02 11 -5 11 C-4.67 10.34 -4.34 9.68 -4 9 C-3.34 8.67 -2.68 8.34 -2 8 C-1.31527335 6.11235097 -1.31527335 6.11235097 -0.875 3.9375 C-0.70742188 3.20402344 -0.53984375 2.47054688 -0.3671875 1.71484375 C-0.24601562 1.14894531 -0.12484375 0.58304688 0 0 Z " fill="#224FAE" transform="translate(36,24)"/>
<path d="M0 0 C0 1.65 0 3.3 0 5 C-0.99 5 -1.98 5 -3 5 C-2.01 5.33 -1.02 5.66 0 6 C0 11.94 0 17.88 0 24 C-0.33 24 -0.66 24 -1 24 C-1.33 19.05 -1.66 14.1 -2 9 C-3.65 9 -5.3 9 -7 9 C-6.8125 6.1875 -6.8125 6.1875 -6 3 C-2 0 -2 0 0 0 Z " fill="#214588" transform="translate(11,16)"/>
<path d="M0 0 C0.99 0 1.98 0 3 0 C3.66 1.65 4.32 3.3 5 5 C1.125 6 1.125 6 0 6 C-0.33 10.95 -0.66 15.9 -1 21 C-1.33 21 -1.66 21 -2 21 C-2.05390357 18.06225537 -2.0936255 15.12549768 -2.125 12.1875 C-2.14175781 11.35412109 -2.15851562 10.52074219 -2.17578125 9.66210938 C-2.18222656 8.85966797 -2.18867187 8.05722656 -2.1953125 7.23046875 C-2.20578613 6.49207764 -2.21625977 5.75368652 -2.22705078 4.99291992 C-2 3 -2 3 0 0 Z " fill="#1D4388" transform="translate(49,19)"/>
<path d="M0 0 C1.875 1.25 1.875 1.25 2.875 4.25 C1.885 5.735 1.885 5.735 0.875 7.25 C-0.115 6.92 -1.105 6.59 -2.125 6.25 C-2.125 5.59 -2.125 4.93 -2.125 4.25 C-3.08613866 2.88838689 -4.08384159 1.55144802 -5.125 0.25 C-2.125 -0.75 -2.125 -0.75 0 0 Z " fill="#1D3A73" transform="translate(35.125,18.75)"/>
<path d="M0 0 C0.433125 0.45375 0.86625 0.9075 1.3125 1.375 C3.10798342 3.20024334 3.10798342 3.20024334 6 5 C4.35 5.33 2.7 5.66 1 6 C1 6.66 1 7.32 1 8 C0.01 8.33 -0.98 8.66 -2 9 C-2 7.68 -2 6.36 -2 5 C-1.34 5 -0.68 5 0 5 C-0.66 3.68 -1.32 2.36 -2 1 C-1.34 0.67 -0.68 0.34 0 0 Z " fill="#1A4183" transform="translate(24,6)"/>
<path d="M0 0 C1.65 0 3.3 0 5 0 C5.33 1.65 5.66 3.3 6 5 C4.35 5.33 2.7 5.66 1 6 C0 1.125 0 1.125 0 0 Z " fill="#255BC3" transform="translate(26,4)"/>
<path d="M0 0 C0.99 0 1.98 0 3 0 C3 0.66 3 1.32 3 2 C3.66 2.33 4.32 2.66 5 3 C1.77208445 5.1519437 0.71599191 5.20086443 -3 5 C-3 4.01 -3 3.02 -3 2 C-2.01 2 -1.02 2 0 2 C0 1.34 0 0.68 0 0 Z " fill="#224580" transform="translate(31,33)"/>
<path d="M0 0 C2.97 0 5.94 0 9 0 C6.81434857 2.18565143 4.71931095 3.54085754 2 5 C1.01 5 0.02 5 -1 5 C-0.67 3.35 -0.34 1.7 0 0 Z " fill="#264C95" transform="translate(23,18)"/>
<path d="M0 0 C0.33 1.32 0.66 2.64 1 4 C-1.64 4 -4.28 4 -7 4 C-7 3.01 -7 2.02 -7 1 C-5.5459375 1.0309375 -5.5459375 1.0309375 -4.0625 1.0625 C-1.12534105 1.35618499 -1.12534105 1.35618499 0 0 Z " fill="#25427F" transform="translate(32,29)"/>
<path d="M0 0 C0.99 0.33 1.98 0.66 3 1 C3 1.66 3 2.32 3 3 C2.34 3 1.68 3 1 3 C0.67 3.99 0.34 4.98 0 6 C-0.99 5.34 -1.98 4.68 -3 4 C-2.67 3.01 -2.34 2.02 -2 1 C-1.34 0.67 -0.68 0.34 0 0 Z " fill="#2455B3" transform="translate(21,8)"/>
<path d="M0 0 C1.32 0.66 2.64 1.32 4 2 C3.67 2.66 3.34 3.32 3 4 C0.525 3.01 0.525 3.01 -2 2 C-1.34 1.34 -0.68 0.68 0 0 Z " fill="#23365E" transform="translate(30,25)"/>
<path d="M0 0 C0.99 0.33 1.98 0.66 3 1 C2.34 1.66 1.68 2.32 1 3 C0.34 3 -0.32 3 -1 3 C-0.67 2.01 -0.34 1.02 0 0 Z " fill="#2E4686" transform="translate(25,26)"/>
<path d="M0 0 C2 1 2 1 2 1 Z " fill="#000000" transform="translate(28,28)"/>
<path d="" fill="#000000" transform="translate(0,0)"/>
<path d="" fill="#000000" transform="translate(0,0)"/>
<path d="" fill="#000000" transform="translate(0,0)"/>
<path d="" fill="#000000" transform="translate(0,0)"/>
<path d="" fill="#000000" transform="translate(0,0)"/>
<path d="" fill="#000000" transform="translate(0,0)"/>
<path d="" fill="#000000" transform="translate(0,0)"/>
<path d="" fill="#000000" transform="translate(0,0)"/>
<path d="" fill="#000000" transform="translate(0,0)"/>
<path d="" fill="#000000" transform="translate(0,0)"/>
<path d="" fill="#000000" transform="translate(0,0)"/>
<path d="" fill="#000000" transform="translate(0,0)"/>
<path d="" fill="#000000" transform="translate(0,0)"/>
<path d="" fill="#000000" transform="translate(0,0)"/>
<path d="" fill="#000000" transform="translate(0,0)"/>
<path d="" fill="#000000" transform="translate(0,0)"/>
<path d="" fill="#000000" transform="translate(0,0)"/>
<path d="" fill="#000000" transform="translate(0,0)"/>
<path d="" fill="#000000" transform="translate(0,0)"/>
<path d="" fill="#000000" transform="translate(0,0)"/>
<path d="" fill="#000000" transform="translate(0,0)"/>
<path d="" fill="#000000" transform="translate(0,0)"/>
<path d="" fill="#000000" transform="translate(0,0)"/>
<path d="" fill="#000000" transform="translate(0,0)"/>
<path d="" fill="#000000" transform="translate(0,0)"/>
<path d="" fill="#000000" transform="translate(0,0)"/>
<path d="" fill="#000000" transform="translate(0,0)"/>
<path d="" fill="#000000" transform="translate(0,0)"/>
<path d="" fill="#000000" transform="translate(0,0)"/>
<path d="" fill="#000000" transform="translate(0,0)"/>
<path d="" fill="#000000" transform="translate(0,0)"/>
</svg>
